<?xml version="1.0" encoding="UTF-8" standalone="no"?>
<svg
   xmlns:dc="http://purl.org/dc/elements/1.1/"
   xmlns:cc="http://creativecommons.org/ns#"
   xmlns:rdf="http://www.w3.org/1999/02/22-rdf-syntax-ns#"
   xmlns:svg="http://www.w3.org/2000/svg"
   xmlns="http://www.w3.org/2000/svg"
   xmlns:sodipodi="http://sodipodi.sourceforge.net/DTD/sodipodi-0.dtd"
   xmlns:inkscape="http://www.inkscape.org/namespaces/inkscape"
   width="372.00427mm"
   height="170.61981mm"
   viewBox="0 0 372.00427 170.61981"
   version="1.1"
   id="svg8"
   inkscape:version="1.0.2-2 (e86c870879, 2021-01-15)"
   sodipodi:docname="thing.svg">
  <defs
     id="defs2" />
  <sodipodi:namedview
     id="base"
     pagecolor="#ffffff"
     bordercolor="#666666"
     borderopacity="1.0"
     inkscape:pageopacity="0.0"
     inkscape:pageshadow="2"
     inkscape:zoom="0.98994949"
     inkscape:cx="454.45763"
     inkscape:cy="289.40021"
     inkscape:document-units="mm"
     inkscape:current-layer="layer1"
     inkscape:document-rotation="0"
     showgrid="false"
     lock-margins="true"
     fit-margin-top="0"
     fit-margin-left="0"
     fit-margin-right="0"
     fit-margin-bottom="0"
     inkscape:window-width="2560"
     inkscape:window-height="1387"
     inkscape:window-x="1072"
     inkscape:window-y="331"
     inkscape:window-maximized="1" />
  <metadata
     id="metadata5">
    <rdf:RDF>
      <cc:Work
         rdf:about="">
        <dc:format>image/svg+xml</dc:format>
        <dc:type
           rdf:resource="http://purl.org/dc/dcmitype/StillImage" />
        <dc:title></dc:title>
      </cc:Work>
    </rdf:RDF>
  </metadata>
  <g
     inkscape:label="Layer 1"
     inkscape:groupmode="layer"
     id="layer1"
     transform="translate(160.06352,-54.529268)">
    <path
       style="fill:#ffffff;stroke-width:0.264583"
       d="m -121.43435,224.99151 c -5.45703,0.045 -11.58483,0.0357 -13.61733,-0.0205 -3.33578,-0.0923 -3.75425,-0.15746 -4.29948,-0.66968 -0.56774,-0.53335 -0.60402,-0.77016 -0.60402,-3.9417 0,-3.33013 0.009,-3.38143 0.69714,-3.92263 0.38342,-0.30161 1.04368,-0.54837 1.46723,-0.54837 0.46486,0 1.02751,0.25741 1.41953,0.64943 0.55901,0.55901 0.64943,0.89385 0.64943,2.40494 v 1.75552 l 12.76615,-0.12035 c 10.75802,-0.10141 13.07829,-0.19115 14.75052,-0.57051 1.0914,-0.24759 2.96823,-0.92265 4.17073,-1.50013 1.49475,-0.71782 2.63164,-1.50241 3.59402,-2.48029 0.774223,-0.78669 1.780563,-2.1878 2.236323,-3.11357 0.45576,-0.92578 1.00958,-2.45085 1.23071,-3.38904 0.22114,-0.93818 0.40207,-2.4797 0.40207,-3.42559 0,-0.94588 -0.17982,-2.48261 -0.39958,-3.41495 -0.21977,-0.93235 -0.76956,-2.38931 -1.22175,-3.23771 -0.45219,-0.8484 -1.40551,-2.08819 -2.118503,-2.75511 -0.71299,-0.66691 -1.9446,-1.50936 -2.73693,-1.8721 -0.79233,-0.36273 -1.68149,-0.96577 -1.97593,-1.34009 -0.29443,-0.37431 -0.53533,-0.91046 -0.53533,-1.19144 0,-0.28099 0.11635,-0.72829 0.25855,-0.994 0.14221,-0.26571 0.88647,-0.83748 1.65391,-1.2706 0.76744,-0.43311 1.91192,-1.34789 2.54328,-2.03284 0.63136,-0.68494 1.440383,-1.88416 1.797833,-2.66493 0.35745,-0.78078 0.77221,-2.17085 0.92168,-3.08905 0.14947,-0.91821 0.19709,-2.32431 0.10582,-3.12468 -0.0913,-0.80036 -0.34861,-2.10496 -0.57185,-2.89911 -0.22324,-0.79415 -0.70844,-2.04096 -1.07821,-2.77068 -0.369783,-0.72973 -1.401083,-2.05457 -2.291773,-2.94409 -1.03059,-1.02923 -2.2448,-1.91384 -3.33924,-2.43279 -0.94588,-0.44851 -2.43417,-1.02506 -3.30729,-1.28122 -1.41005,-0.41367 -3.22157,-0.47709 -16.20573,-0.56741 l -14.61823,-0.10168 v 22.12474 22.12475 l 13.03073,-0.0941 c 11.37655,-0.0821 13.20163,-0.15099 14.37703,-0.54255 0.74047,-0.24667 1.74967,-0.72031 2.24266,-1.05254 0.493,-0.33224 1.17861,-1.01795 1.52359,-1.52381 0.53641,-0.78659 0.60776,-1.14255 0.49281,-2.45873 -0.0925,-1.05884 -0.35413,-1.871 -0.83865,-2.60315 -0.49119,-0.74224 -1.15864,-1.27719 -2.20631,-1.76831 l -1.50207,-0.70414 -8.40052,-0.0858 -8.40052,-0.0858 v 3.95913 c 0,3.37839 -0.0679,4.04223 -0.46302,4.52565 -0.25466,0.31159 -0.87978,0.63319 -1.38915,0.71467 -0.70263,0.11239 -1.10169,0.0101 -1.65364,-0.42412 l -0.72752,-0.57227 v -5.62322 c 0,-5.53579 0.01,-5.63216 0.61236,-6.19851 0.60467,-0.56805 0.72887,-0.57528 9.87955,-0.57528 8.30295,0 9.47584,0.0534 11.27248,0.51286 1.1029,0.28208 2.50808,0.76938 3.12261,1.08289 0.61453,0.31351 1.68292,1.09906 2.3742,1.74568 0.69853,0.65338 1.53216,1.78848 1.87655,2.55514 0.5002,1.11351 0.62046,1.83856 0.62377,3.76072 0.004,2.07851 -0.0903,2.57347 -0.73836,3.8932 -0.41863,0.8525 -1.26982,1.97614 -1.95157,2.57624 -0.66501,0.58537 -1.84017,1.36284 -2.61146,1.72772 -0.77129,0.36488 -2.15527,0.84092 -3.07551,1.05786 -1.37436,0.32401 -4.25194,0.39515 -16.11298,0.39836 l -14.43982,0.004 -0.64143,-0.68271 -0.64143,-0.68271 -0.0705,-24.65115 c -0.0531,-18.57889 0.007,-24.83838 0.24402,-25.41129 0.18551,-0.44834 0.6722,-0.90959 1.18648,-1.12448 0.70087,-0.29283 3.45656,-0.36428 14.04349,-0.3641 7.24433,1.2e-4 14.43616,0.12014 15.98183,0.26672 1.54567,0.14657 3.74833,0.50297 4.89479,0.79198 1.14646,0.28902 3.08619,1.01783 4.31051,1.61959 1.68846,0.82989 2.71743,1.58102 4.260903,3.1104 1.59188,1.57734 2.27338,2.5059 3.13043,4.26525 0.60256,1.23693 1.2986,3.02287 1.54674,3.96875 0.29905,1.13991 0.45563,2.79034 0.46438,4.89479 0.011,2.6431 -0.0881,3.46793 -0.59124,4.92352 -0.33244,0.96168 -0.96884,2.3309 -1.41423,3.04271 -0.44539,0.7118 -1.29461,1.79521 -1.88715,2.40756 l -1.07736,1.11337 1.889,1.98863 c 1.06485,1.12101 2.25637,2.71309 2.73101,3.64913 0.4631,0.91327 1.0703,2.37487 1.34932,3.248 0.31963,1.00017 0.55866,2.71321 0.6461,4.63021 0.10101,2.21463 0.0252,3.58276 -0.2787,5.02708 -0.22962,1.09141 -0.91308,2.98949 -1.51882,4.21797 -0.8315,1.68637 -1.56416,2.69111 -2.99046,4.10104 -1.03902,1.0271 -2.57214,2.27039 -3.406943,2.76287 -0.83479,0.49249 -2.49767,1.22352 -3.69528,1.62453 -1.19762,0.401 -3.30857,0.9265 -4.69102,1.16776 -1.96623,0.34314 -4.674,0.45645 -12.43542,0.52038 z m 63.367715,0.15753 h -18.677182 l -0.64943,-0.64943 c -0.63326,-0.63325 -0.64943,-0.75085 -0.64943,-4.72149 0,-3.54281 0.0602,-4.12629 0.46302,-4.48933 0.25466,-0.2295 0.77762,-0.49576 1.16213,-0.59171 0.43031,-0.10736 1.00292,-0.0173 1.48929,0.23419 0.4346,0.22474 0.86414,0.60136 0.95454,0.83692 0.0904,0.23557 0.16435,1.49013 0.16435,2.78791 v 2.35961 h 15.742712 15.742709 v -3.30729 -3.30729 h -19.989181 c -17.02608,0 -20.10014,-0.0574 -20.73773,-0.38709 -0.4117,-0.2129 -0.82251,-0.57983 -0.9129,-0.81539 -0.0904,-0.23557 -0.16436,-11.6018 -0.16436,-25.25829 v -24.82999 l 0.69714,-0.54837 c 0.69239,-0.54464 0.84479,-0.54837 22.369321,-0.54837 h 21.67218 l 0.64943,0.64943 0.649433,0.64943 v 6.20042 c 0,5.71013 -0.03999,6.24982 -0.505672,6.82505 l -0.505674,0.62463 -15.170888,0.13229 -15.17089,0.13229 v 4.49792 4.49791 l 14.641728,0.13229 14.641733,0.1323 0.505663,0.62462 c 0.463974,0.57312 0.505667,1.11012 0.505667,6.51276 0,5.55015 -0.03138,5.92802 -0.546614,6.58304 l -0.546615,0.6949 -14.60078,0.0684 -14.600782,0.0684 -0.0701,2.51354 c -0.0608,2.17857 -0.144,2.57525 -0.62462,2.97656 -0.31526,0.26324 -0.99025,0.46302 -1.56434,0.46302 -0.77579,0 -1.13691,-0.16156 -1.55819,-0.69714 -0.49522,-0.62956 -0.54837,-1.05471 -0.54837,-4.38597 v -3.68884 l 0.7734,-0.7734 0.77339,-0.7734 h 14.440148 14.440143 v -3.0427 -3.04271 h -14.398151 c -7.918985,0 -14.59089,-0.074 -14.82645,-0.16436 -0.23557,-0.0904 -0.60249,-0.5012 -0.81539,-0.9129 -0.3105,-0.60044 -0.38709,-2.10445 -0.38709,-7.60137 0,-4.32098 0.10803,-7.16274 0.29241,-7.69164 0.16083,-0.46135 0.51019,-0.95537 0.77636,-1.09782 0.29931,-0.16018 6.193855,-0.259 15.450293,-0.259 h 14.966352 v -3.30729 -3.30729 h -18.785417 -18.785418 v 21.82332 21.82332 l 20.396363,0.0709 20.396359,0.071 0.505724,0.62463 c 0.466424,0.57608 0.505722,1.11673 0.505722,6.95734 v 6.33271 l -0.649433,0.64943 -0.64943,0.64943 z m 52.9249943,0 h -5.9855053 l -0.64943,-0.64943 -0.649433,-0.64943 v -25.25042 c 0,-24.46481 0.01574,-25.26986 0.505655,-25.87505 l 0.505656,-0.62462 13.6584353,-0.0731 13.6584317,-0.0731 -0.07503,-2.8373 -0.07503,-2.83731 -20.8359377,-0.0677 -20.8359373,-0.0678 v 2.91202 2.91202 h 3.848483 c 3.733268,0 3.867928,0.0195 4.497917,0.64944 0.357907,0.3579 0.649433,0.95956 0.649433,1.34031 0,0.37998 -0.136888,0.95094 -0.304191,1.26879 -0.167307,0.31786 -0.435198,0.6654 -0.595313,0.77231 -0.160118,0.10691 -2.761668,0.19621 -5.781225,0.19844 -5.071965,0.004 -5.528956,-0.0348 -6.0002,-0.50605 -0.280551,-0.28055 -0.588193,-1.03089 -0.683646,-1.66741 -0.09545,-0.63653 -0.1338,-3.33453 -0.08522,-5.99556 l 0.08833,-4.83824 0.742357,-0.6381 0.74236,-0.63809 H -4.9908947 18.818878 l 0.64943,0.64943 0.649433,0.64943 v 5.79718 c 0,5.46422 -0.0315,5.83722 -0.54837,6.49432 l -0.54837,0.69714 H 5.4141623 -8.1926757 v 22.35729 22.35729 h 3.03658 3.036578 l 0.07228,-21.19012 0.07227,-21.19012 0.624624,-0.50571 c 0.37110101,-0.30046 1.03449101,-0.50572 1.63444201,-0.50572 0.77578699,0 1.13690699,0.16157 1.55818899,0.69714 0.544939,0.69278 0.548371,0.83697 0.548371,23.03911 v 22.34196 l -0.773399,0.7734 -0.77339499,0.77339 z m 58.0677157,0 h -6.10947 l -0.649431,-0.64943 -0.649433,-0.64943 0.0084,-25.21359 c 0.0065,-19.40289 0.0827,-25.31033 0.330729,-25.63339 0.177274,-0.23089 0.58238,-0.55831 0.900234,-0.7276 0.41723,-0.22222 4.261059,-0.30781 13.82448,-0.30781 h 13.24656 v -2.91041 -2.91042 H 52.926075 32.023991 v 2.91042 2.91041 h 3.848484 c 3.733268,0 3.867928,0.0195 4.497916,0.64944 0.428938,0.42893 0.649433,0.94793 0.649433,1.52863 0,0.48355 -0.185345,1.14381 -0.411876,1.46723 -0.403673,0.57632 -0.524018,0.58804 -6.039298,0.58804 -5.540176,0 -5.636336,-0.009 -6.202706,-0.61237 -0.555043,-0.59082 -0.575286,-0.81932 -0.575286,-6.49432 v -5.88195 l 0.649433,-0.64943 0.64943,-0.64943 h 23.836554 23.836553 l 0.64943,0.64943 0.649433,0.64943 v 5.91903 c 0,5.83769 -0.0084,5.9269 -0.609753,6.49187 -0.606703,0.56996 -0.677217,0.57317 -14.089063,0.64143 l -13.479309,0.0686 v 22.225 22.225 h 3.042709 3.042708 l 0.132292,-21.2542 c 0.128553,-20.65358 0.146804,-21.26481 0.645882,-21.62969 0.282474,-0.20652 0.967084,-0.37549 1.521354,-0.37549 0.654987,0 1.193004,0.18524 1.53693,0.52917 0.52092,0.52092 0.529167,0.88194 0.529167,23.16307 v 22.6339 l -0.649433,0.64943 -0.64943,0.64943 z m 58.578435,0 H 92.854105 l -0.64943,-0.64943 c -0.631542,-0.63154 -0.649433,-0.75829 -0.649433,-4.60089 0,-3.48298 0.05939,-4.02481 0.500919,-4.57008 0.374984,-0.46308 0.768792,-0.61861 1.566376,-0.61861 0.665506,0 1.268545,0.18381 1.60655,0.4897 0.461539,0.41768 0.552185,0.86428 0.616453,3.03669 l 0.07533,2.547 15.67656,0.0682 15.67657,0.0683 v -3.30456 -3.30455 l -20.26362,-0.071 -20.263594,-0.071 -0.638479,-0.74236 -0.638479,-0.74236 v -24.73581 -24.73582 l 0.649433,-0.64943 0.64943,-0.64943 h 21.693109 21.69311 l 0.74234,0.63855 0.74237,0.63855 v 6.26352 6.26353 l -0.74237,0.63855 -0.74234,0.63855 H 115.22069 100.2865 v 4.63021 4.6302 h 14.3841 c 14.15139,0 14.39539,0.009 15.08125,0.54837 l 0.69715,0.54837 v 6.15239 c 0,6.08891 -0.006,6.15832 -0.61238,6.72767 l -0.61235,0.57529 h -14.4689 -14.46887 v 2.34557 c 0,1.97231 -0.0873,2.4565 -0.548384,3.0427 -0.42127,0.53558 -0.7824,0.69714 -1.55818,0.69714 -0.60005,0 -1.26328,-0.20524 -1.63444,-0.50579 -0.606797,-0.49134 -0.624629,-0.62047 -0.624629,-4.52082 v -4.01504 l 0.742369,-0.63854 0.74234,-0.63856 h 14.405054 14.40503 v -3.0427 -3.04271 H 111.7097 97.203726 l -0.64143,-0.68311 -0.641429,-0.6831 v -7.36755 c 0,-7.08053 0.0217,-7.39664 0.557688,-8.11429 l 0.557661,-0.74674 15.118904,-0.0683 15.11888,-0.0683 v -3.30512 -3.30513 H 108.48858 89.703158 v 21.82813 21.82812 h 20.225862 20.22589 l 0.74234,0.63855 0.74237,0.63855 v 6.39582 6.39582 l -0.74237,0.63854 -0.74234,0.63855 z m 38.42646,0 c -5.91751,0 -5.96387,-0.004 -6.70107,-0.63855 l -0.74237,-0.63854 v -10.69787 c 0,-8.98636 0.0617,-10.77228 0.386,-11.16297 0.2123,-0.25581 0.65622,-0.56784 0.98644,-0.6934 0.33026,-0.12556 5.37089,-0.24451 11.2014,-0.26432 l 10.60096,-0.036 1.00743,0.6667 c 0.55411,0.36668 1.54149,1.37711 2.19419,2.2454 0.6527,0.8683 4.01904,4.98588 7.48075,9.15019 l 6.29401,7.57148 h 3.6839 c 2.99344,0 3.64426,-0.0659 3.47234,-0.35159 -0.11637,-0.19336 -3.30721,-4.01557 -7.09076,-8.49379 -3.78354,-4.47822 -7.02378,-8.3979 -7.20053,-8.7104 -0.17674,-0.3125 -0.32556,-0.82943 -0.33072,-1.14874 -0.005,-0.31931 0.25852,-0.87541 0.58594,-1.23577 0.35068,-0.38597 1.24767,-0.83669 2.18281,-1.09682 0.87313,-0.24288 2.42094,-0.87693 3.43959,-1.409 1.07685,-0.56246 2.51658,-1.63235 3.43958,-2.556 0.87313,-0.87373 1.97736,-2.32511 2.45391,-3.22528 0.47651,-0.90018 1.10159,-2.55632 1.38906,-3.68031 0.36817,-1.43958 0.52149,-2.9109 0.51874,-4.97785 -0.003,-1.6934 -0.17492,-3.65982 -0.4083,-4.65002 -0.22241,-0.94368 -0.8331,-2.61056 -1.35708,-3.70417 -0.72946,-1.52241 -1.45534,-2.48629 -3.09745,-4.11301 -1.5422,-1.52775 -2.65626,-2.3695 -3.96563,-2.99633 -1.0015,-0.47944 -2.7279,-1.12461 -3.83646,-1.4337 -1.91296,-0.53338 -2.71904,-0.5669 -15.84002,-0.65865 l -13.82448,-0.0967 v 12.46365 12.46365 l 13.5599,-0.0774 c 13.31404,-0.076 13.57908,-0.0878 14.61823,-0.64849 0.58208,-0.31409 1.37938,-0.90941 1.77175,-1.32292 0.39238,-0.4135 0.96695,-1.32517 1.2768,-2.02593 0.36119,-0.81679 0.57203,-1.86141 0.58746,-2.91041 0.0132,-0.90722 -0.17891,-2.2462 -0.43143,-3.00507 -0.31041,-0.93277 -0.82209,-1.70667 -1.60647,-2.42968 -0.69493,-0.64057 -1.71133,-1.23837 -2.56516,-1.50873 -1.14232,-0.3617 -2.87671,-0.47291 -9.02097,-0.57843 l -7.60677,-0.13063 v 4.67378 c 0,4.60951 -0.009,4.68271 -0.64942,5.32321 -0.43744,0.43741 -0.94613,0.64943 -1.55821,0.64943 -0.50054,0 -1.18933,-0.2272 -1.53337,-0.50579 -0.62463,-0.50578 -0.62463,-0.50591 -0.62463,-6.76978 v -6.26399 l 0.74237,-0.63855 0.74234,-0.63855 h 8.66791 c 5.08325,0 9.31717,0.11859 10.23784,0.28675 0.86349,0.15772 2.30108,0.63383 3.19466,1.05803 0.89358,0.42421 2.22938,1.31496 2.96846,1.97945 0.83252,0.7485 1.64809,1.83078 2.14361,2.84458 0.46429,0.94991 0.93125,2.49451 1.11307,3.6819 0.24471,1.59785 0.24172,2.43384 -0.0138,3.81989 -0.17981,0.97591 -0.61947,2.39271 -0.97697,3.14845 -0.35753,0.75574 -1.24381,1.97727 -1.96951,2.7145 -0.79356,0.80618 -2.08367,1.71515 -3.23686,2.28057 -1.5739,0.7717 -2.41509,0.99336 -4.69553,1.23729 -1.82978,0.19572 -7.06829,0.2573 -15.34583,0.18039 -8.83402,-0.0821 -12.7363,-0.20801 -13.13519,-0.42391 -0.31213,-0.16892 -0.69908,-0.68461 -0.8599,-1.14595 -0.19962,-0.57267 -0.29194,-5.38073 -0.29093,-15.15299 0,-9.07751 0.10197,-14.676 0.27614,-15.30323 0.15108,-0.54399 0.53044,-1.12595 0.84302,-1.29324 0.39007,-0.20876 3.97544,-0.34314 11.43167,-0.42846 6.2004,-0.071 12.90754,-0.003 15.62581,0.15727 3.11169,0.18397 5.49619,0.47043 6.87917,0.82643 1.16417,0.29967 3.00963,0.96709 4.10104,1.48315 1.09141,0.51607 2.86872,1.61454 3.94957,2.44105 1.08087,0.82651 2.59625,2.26778 3.36751,3.20282 0.77126,0.93504 1.87759,2.66241 2.45851,3.8386 0.58092,1.17619 1.29278,3.15056 1.58189,4.38749 0.28913,1.23693 0.6047,3.14826 0.7013,4.24739 0.0982,1.11746 0.0427,2.99682 -0.12578,4.26318 -0.16576,1.2456 -0.4789,2.96568 -0.69585,3.8224 -0.21696,0.85671 -0.88993,2.56969 -1.49546,3.80661 -0.88045,1.79857 -1.55551,2.70323 -3.37079,4.51727 -1.81417,1.81293 -2.70497,2.4769 -4.43711,3.30729 -1.22365,0.58663 -2.12299,1.17531 -2.06558,1.35209 0.0559,0.17221 2.93616,3.66368 6.40059,7.75881 3.4644,4.09514 6.80492,8.10212 7.42339,8.90441 0.93657,1.21497 1.12448,1.65579 1.12448,2.63812 0,0.89943 -0.15418,1.33357 -0.64942,1.82883 l -0.64945,0.64943 h -6.63511 c -5.0813,0 -6.84223,-0.0865 -7.51957,-0.36955 -0.48646,-0.20325 -1.22677,-0.81002 -1.64515,-1.34837 -0.41836,-0.53835 -3.95256,-4.83689 -7.85376,-9.55232 l -7.09303,-8.57351 h -8.71575 -8.71577 v 7.67292 7.67292 h 3.02636 3.02633 l 0.0825,-4.91826 0.0825,-4.91826 0.74237,-0.63799 c 0.40828,-0.3509 0.97975,-0.63799 1.26989,-0.63799 0.29017,0 0.86371,0.17382 1.27455,0.38628 0.41082,0.21245 0.82,0.65894 0.90927,0.99218 0.0893,0.33325 0.16394,3.32374 0.16592,6.64554 l 0.004,6.03962 -0.77341,0.7734 -0.7734,0.77339 h -5.95871 z m -272.98328,-35.45616 c -8.86644,0.002 -9.18083,-0.0155 -9.85573,-0.54637 l -0.69714,-0.54837 v -7.73989 -7.73988 l 0.68461,-0.64143 0.68461,-0.64144 9.17112,0.0347 c 7.41993,0.0281 9.51321,0.116 10.96269,0.46052 0.98537,0.23421 2.24028,0.65475 2.78869,0.93452 0.54841,0.27978 1.48158,0.97885 2.0737,1.55348 0.59213,0.57464 1.42081,1.74584 1.84152,2.60267 0.67146,1.36751 0.76493,1.84885 0.76493,3.93912 0,2.14277 -0.0783,2.52256 -0.78156,3.7922 -0.42986,0.77602 -1.14424,1.71779 -1.5875,2.09281 -0.44327,0.37503 -1.40125,0.95424 -2.12885,1.28715 -0.72761,0.3329 -2.09683,0.72969 -3.04271,0.88175 -0.95461,0.15346 -5.7947,0.27736 -10.87838,0.27847 z m 1.43008,-4.23134 c 6.0214,0 8.08808,-0.0881 9.26735,-0.39531 0.83475,-0.21743 1.81835,-0.5923 2.18578,-0.83305 0.36743,-0.24074 0.84055,-0.77131 1.0514,-1.17904 0.21084,-0.40772 0.38335,-1.10824 0.38335,-1.5567 0,-0.44847 -0.16102,-1.19852 -0.35782,-1.66679 -0.1968,-0.46827 -0.90038,-1.34992 -1.56351,-1.95922 -0.7117,-0.65392 -1.67268,-1.23357 -2.34544,-1.41472 -0.62685,-0.16879 -2.27475,-0.32512 -3.662,-0.34738 -1.38725,-0.0223 -4.81422,-0.0107 -7.6155,0.0257 l -5.09323,0.0661 v 4.63021 4.6302 z M 9.9312833,145.24488 h -1.984375 v -4.36563 -4.36562 h -1.719792 -1.719792 v -1.5875 -1.5875 h 5.423959 5.4239577 v 1.5875 1.5875 h -1.719792 -1.719791 v 4.36562 4.36563 z m 12.4354157,0 h -1.984375 v -5.95313 -5.95312 h 1.984375 1.984375 v 2.11666 2.11667 h 1.852084 1.852083 v -2.11667 -2.11666 h 1.984375 1.984375 v 5.95312 5.95313 h -1.984375 -1.984375 v -2.11667 -2.11667 h -1.852083 -1.852084 v 2.11667 2.11667 z m 20.240625,0 h -5.027083 v -5.95313 -5.95312 h 5.027083 5.027084 v 1.5875 1.5875 h -3.193402 c -3.160339,0 -3.192526,0.006 -3.108854,0.59531 0.08091,0.5697 0.206909,0.59854 2.928818,0.67041 l 2.844271,0.0751 v 1.30501 1.30502 l -2.844271,0.0751 c -2.837473,0.0749 -2.844271,0.0767 -2.844271,0.73656 v 0.66146 l 3.108855,0.0745 3.108854,0.0745 v 1.57911 1.5791 z M -134.13435,121.39307 c -1.38245,-0.0159 -3.38225,-0.13794 -4.44402,-0.27113 -1.06176,-0.13318 -3.08582,-0.53186 -4.49791,-0.88595 -1.51192,-0.37913 -3.6552,-1.18911 -5.21328,-1.9702 -1.45521,-0.72951 -3.39545,-1.93011 -4.31164,-2.66799 -0.9162,-0.73788 -2.42291,-2.29906 -3.34825,-3.46929 -0.92534,-1.17022 -2.22956,-3.23 -2.89825,-4.57727 -0.6687,-1.34727 -1.21582,-2.69105 -1.21582,-2.98616 0,-0.29512 0.20836,-0.78602 0.46302,-1.0909 0.25467,-0.30488 2.54662,-1.70781 5.09323,-3.11762 3.05856,-1.693231 4.9137,-2.565785 5.46538,-2.570619 0.45935,-0.004 1.03461,0.1582 1.27836,0.360498 0.24376,0.202298 0.80431,1.083183 1.24568,1.957521 0.44136,0.87434 1.44514,2.21715 2.23061,2.98402 0.87176,0.85111 2.17417,1.74707 3.34312,2.29982 1.05324,0.49804 2.56982,1.0661 3.37019,1.26236 0.80097,0.19641 2.82315,0.35469 4.49791,0.35207 2.05181,-0.003 3.60278,-0.15548 4.7625,-0.46755 0.94589,-0.25453 2.3224,-0.87522 3.05891,-1.37932 0.73652,-0.5041 1.58956,-1.36401 1.89566,-1.91091 0.3061,-0.5469 0.63593,-1.4219 0.73295,-1.94443 0.097,-0.52253 0.0393,-1.459317 -0.12833,-2.081746 -0.18723,-0.695312 -0.76036,-1.618787 -1.48634,-2.394921 -0.64988,-0.694778 -1.74284,-1.504141 -2.42879,-1.798585 -0.68595,-0.294441 -2.17853,-0.664435 -3.31685,-0.822206 -1.13831,-0.157771 -2.60185,-0.286856 -3.2523,-0.286856 -0.65045,0 -2.10035,-0.187288 -3.222,-0.416192 -1.12165,-0.228907 -2.90954,-0.832046 -3.97308,-1.340308 -1.30071,-0.621604 -2.47355,-1.459746 -3.58281,-2.56037 -1.00514,-0.997318 -2.02345,-2.359469 -2.60779,-3.488338 -0.52729,-1.018646 -1.14745,-2.769799 -1.37813,-3.891449 -0.23069,-1.121651 -0.41943,-2.704251 -0.41943,-3.516884 0,-0.812634 0.18825,-2.395234 0.41834,-3.516884 0.23009,-1.121651 0.76902,-2.777353 1.19762,-3.679337 0.4286,-0.901984 1.36849,-2.284671 2.08865,-3.072639 0.8091,-0.885291 1.99423,-1.788725 3.10186,-2.364588 0.98587,-0.512555 2.574,-1.124165 3.52918,-1.359131 1.04142,-0.256179 2.85169,-0.427213 4.52174,-0.427213 1.90628,0 3.44541,0.166481 4.87789,0.52762 1.15107,0.290191 3.04535,0.997074 4.20951,1.57085 1.16417,0.573776 2.78253,1.638847 3.59636,2.366823 l 1.47968,1.323594 2.29063,-1.189151 c 1.25984,-0.654033 2.29062,-1.285661 2.29062,-1.403616 0,-0.117956 -0.50601,-0.837486 -1.12448,-1.598955 -0.61846,-0.761469 -1.83806,-1.921503 -2.71022,-2.577854 -0.87215,-0.656351 -2.26559,-1.536555 -3.09652,-1.956008 -0.83094,-0.419454 -2.5358,-1.059678 -3.78858,-1.422722 -1.25279,-0.363043 -3.52163,-0.777933 -5.04188,-0.921977 -1.80468,-0.170994 -3.70059,-0.172666 -5.46221,-0.0048 -1.48397,0.141394 -3.59622,0.500874 -4.69389,0.798844 -1.09767,0.297969 -2.97034,1.021542 -4.16149,1.607938 -1.29915,0.63956 -2.83425,1.68143 -3.83646,2.603795 -0.9189,0.845692 -2.08439,2.226274 -2.58999,3.067961 -0.50559,0.841687 -1.1238,2.313912 -1.37381,3.271612 -0.25,0.9577 -0.46141,2.31223 -0.4698,3.010069 -0.0118,0.981662 -0.16222,1.415769 -0.66468,1.918229 -0.44529,0.445291 -0.94431,0.649433 -1.5875,0.649433 -0.58529,0 -1.13707,-0.199004 -1.46724,-0.529167 -0.41788,-0.41788 -0.52916,-0.881943 -0.52916,-2.206635 0,-0.922607 0.23479,-2.595493 0.52175,-3.717523 0.28697,-1.12203 0.94176,-2.839303 1.45508,-3.816162 0.51333,-0.97686 1.65205,-2.572454 2.5305,-3.545766 0.87845,-0.973311 2.46827,-2.35228 3.53294,-3.064375 1.06467,-0.712095 2.85519,-1.677476 3.97894,-2.14529 1.12374,-0.467815 2.91465,-1.073461 3.97979,-1.345879 1.06515,-0.272419 3.38067,-0.644129 5.1456,-0.826024 2.50937,-0.258616 3.85661,-0.262738 6.17958,-0.0189 1.63384,0.171499 4.04217,0.601344 5.35186,0.955212 1.30969,0.353868 3.08671,0.957311 3.94894,1.340984 0.86223,0.383674 2.38849,1.228561 3.39169,1.877528 1.0032,0.648967 2.42598,1.742575 3.16174,2.430241 0.73576,0.687665 1.84414,1.964676 2.46306,2.837801 0.61893,0.873125 1.37795,2.088772 1.68671,2.701438 0.30877,0.612667 0.5614,1.350168 0.5614,1.638892 0,0.288724 -0.26789,0.828305 -0.59531,1.199067 -0.32742,0.370763 -2.45727,1.674852 -4.733,2.897977 -2.27572,1.223124 -4.39786,2.306439 -4.71585,2.407367 -0.318,0.100928 -0.89683,0.04477 -1.28628,-0.124804 -0.38946,-0.169571 -1.19898,-0.92452 -1.79894,-1.677667 -0.59996,-0.753144 -1.76183,-1.771449 -2.58192,-2.2629 -0.8201,-0.49145 -2.29375,-1.201276 -3.27479,-1.57739 -1.58066,-0.606 -2.17524,-0.684995 -5.22328,-0.693954 -3.30404,-0.0097 -3.50743,0.02204 -5.16114,0.805758 -0.94686,0.448727 -2.1276,1.221908 -2.62387,1.718181 -0.49628,0.496273 -1.2008,1.554269 -1.5656,2.351102 -0.52591,1.148754 -0.68789,2.002255 -0.78213,4.12134 -0.0901,2.025716 -0.009,3.051434 0.33623,4.238009 0.2503,0.861001 0.73549,2.043218 1.07821,2.627145 0.34272,0.583931 1.13486,1.561661 1.7603,2.17274 0.62544,0.611079 1.81127,1.418672 2.63519,1.794653 0.92347,0.42141 2.39491,0.790562 3.83645,0.962478 1.28614,0.153381 3.46953,0.433281 4.85198,0.621995 1.38245,0.188717 3.1742,0.594675 3.98167,0.902129 0.80747,0.307456 2.01815,0.907825 2.69041,1.334156 0.67225,0.426331 1.70794,1.38956 2.30153,2.140511 0.68937,0.872106 1.28354,2.037913 1.64472,3.227028 0.43916,1.445821 0.53207,2.259981 0.41597,3.644876 -0.0831,0.99147 -0.40723,2.33153 -0.72998,3.01814 -0.31927,0.67921 -1.09979,1.81252 -1.7345,2.51846 -0.73362,0.81597 -1.90235,1.67221 -3.20827,2.35046 -1.12984,0.5868 -2.82816,1.2803 -3.77405,1.54112 -1.26875,0.34983 -2.69125,0.47547 -5.42396,0.47904 -3.06784,0.004 -4.06778,-0.0986 -5.82083,-0.59747 -1.16417,-0.33127 -3.00964,-1.0381 -4.10104,-1.57074 -1.43363,-0.69965 -2.54269,-1.52193 -3.99601,-2.96274 -1.1064,-1.09687 -2.19976,-2.27731 -2.42969,-2.62321 l -0.41804,-0.62889 -2.33282,1.25195 c -1.28305,0.68858 -2.43497,1.34757 -2.55982,1.46445 -0.12486,0.11687 0.30444,1.03402 0.95399,2.03812 0.64954,1.0041 1.79333,2.43798 2.54175,3.18639 0.74841,0.74842 1.86693,1.70795 2.48559,2.13229 0.61866,0.42434 1.83921,1.12798 2.71234,1.56363 0.87312,0.43566 2.18281,0.98182 2.91042,1.2137 0.7276,0.23187 2.33426,0.60865 3.57035,0.83729 1.35505,0.25063 3.71887,0.41608 5.95313,0.41666 2.11497,5.3e-4 4.67108,-0.16891 5.95464,-0.39476 1.23693,-0.21766 3.02286,-0.64884 3.96875,-0.95819 0.94589,-0.30935 2.55323,-0.99269 3.57188,-1.51853 1.21856,-0.62905 2.53833,-1.63884 3.85833,-2.9521 1.31336,-1.30666 2.25095,-2.51783 2.71476,-3.50688 0.38969,-0.83098 0.90223,-2.25973 1.13899,-3.175 0.25058,-0.96872 0.43047,-2.71454 0.43047,-4.17769 0,-1.452578 -0.17984,-3.208718 -0.42607,-4.160488 -0.23433,-0.90582 -0.80223,-2.392135 -1.262,-3.302923 -0.47692,-0.94479 -1.48629,-2.292358 -2.35028,-3.137773 -1.03659,-1.014302 -2.29852,-1.869102 -3.99991,-2.709432 -1.51097,-0.746283 -3.56237,-1.48641 -5.23186,-1.887606 -1.51048,-0.362982 -3.71313,-0.795253 -4.8948,-0.960604 -1.18165,-0.165349 -2.46754,-0.418243 -2.85751,-0.561983 -0.39745,-0.146497 -0.89494,-0.6531 -1.13207,-1.152816 -0.25682,-0.541211 -0.3553,-1.16132 -0.25065,-1.578282 0.0948,-0.377748 0.44105,-0.862854 0.76943,-1.078016 0.52801,-0.345964 0.92962,-0.342664 3.47323,0.02854 1.5819,0.230857 4.2454,0.754068 5.91889,1.162687 1.67349,0.408623 3.79028,1.045004 4.70398,1.414185 0.91369,0.369179 2.33939,1.070642 3.16821,1.558809 0.82883,0.488164 2.40417,1.780542 3.50075,2.871949 1.16437,1.158869 2.34378,2.647738 2.8351,3.578989 0.46273,0.877036 1.14421,2.639843 1.51442,3.91735 0.37021,1.277506 0.74807,3.417429 0.8397,4.755388 0.11785,1.720756 0.0412,3.151506 -0.26182,4.889096 -0.23563,1.35105 -0.72639,3.18977 -1.09059,4.08605 -0.36419,0.89628 -1.14315,2.36785 -1.73102,3.27016 -0.58788,0.9023 -1.74773,2.28455 -2.57744,3.07166 -0.82972,0.78711 -2.08326,1.82379 -2.78564,2.30372 -0.70239,0.47993 -2.2502,1.32526 -3.43959,1.87851 -1.18938,0.55324 -3.08311,1.26124 -4.20829,1.57331 -1.12517,0.31209 -3.32783,0.73807 -4.89479,0.94664 -1.56696,0.20857 -3.98011,0.36618 -5.36256,0.35024 z m 63.150133,-0.25793 c -1.19002,-0.018 -2.91265,-0.14 -3.82807,-0.2712 -0.91542,-0.1312 -2.5426,-0.51743 -3.61596,-0.85828 -1.07337,-0.34086 -2.74509,-1.0635 -3.71495,-1.60588 -0.96986,-0.54237 -2.56922,-1.74633 -3.55415,-2.67546 -0.98492,-0.92912 -2.12835,-2.17645 -2.54096,-2.77184 l -0.75019,-1.08252 -0.35289,0.67352 c -0.19409,0.37043 -0.58095,0.79557 -0.85969,0.94475 -0.27875,0.14918 -0.82003,0.27123 -1.20284,0.27123 -0.48962,0 -1.08909,-0.40354 -2.02146,-1.36077 -0.72899,-0.74842 -1.9255,-2.20694 -2.65892,-3.24114 -0.73342,-1.03421 -1.8607,-2.95194 -2.50505,-4.26163 -0.64437,-1.30969 -1.518873,-3.51235 -1.943353,-4.8948 -0.42448,-1.382445 -0.97794,-3.585101 -1.22991,-4.894789 -0.31295,-1.626645 -0.45765,-3.680846 -0.45663,-6.482291 0.001,-2.701113 0.15429,-4.94002 0.44912,-6.558796 0.2462,-1.351764 0.86109,-3.733014 1.36642,-5.291667 0.505333,-1.558652 1.369303,-3.726881 1.919953,-4.818287 0.55064,-1.091407 1.59491,-2.873892 2.3206,-3.961079 0.72568,-1.087187 2.24983,-2.91056 3.38699,-4.051941 1.13717,-1.141381 3.07918,-2.734635 4.31558,-3.540566 1.23641,-0.805931 3.17615,-1.86754 4.31054,-2.359133 1.13439,-0.491593 3.18076,-1.193064 4.54749,-1.558825 1.36673,-0.365761 3.78036,-0.800656 5.36362,-0.966433 2.15326,-0.225459 3.62757,-0.225488 5.85059,-1.13e-4 1.634569,0.165716 3.855397,0.527251 4.935177,0.803413 1.079781,0.276161 2.912073,0.86865 4.071758,1.316643 1.159684,0.447992 3.001486,1.342309 4.092892,1.98737 1.091407,0.645061 2.758282,1.832149 3.704167,2.637972 0.945885,0.805824 2.412709,2.274538 3.259608,3.263809 0.846897,0.989271 2.126015,2.766375 2.84248,3.94912 0.716465,1.182746 1.785655,3.354306 2.375974,4.825691 0.590323,1.471385 1.373394,3.956497 1.740157,5.52247 0.511514,2.184012 0.700521,3.864129 0.811429,7.212852 0.122249,3.691144 0.05838,4.869606 -0.413366,7.627678 -0.306874,1.794129 -0.911654,4.31778 -1.343956,5.608112 -0.4323,1.29033 -1.315173,3.39429 -1.961936,4.67545 -0.646763,1.28117 -1.804988,3.22051 -2.573832,4.30966 -0.768845,1.08915 -2.228882,2.79171 -3.244528,3.78346 -1.015642,0.99175 -2.838611,2.46323 -4.051038,3.26995 -1.212426,0.80672 -3.165364,1.87205 -4.33986,2.36738 -1.174498,0.49535 -3.049524,1.13124 -4.166727,1.41311 -1.117206,0.28187 -2.962629,0.63938 -4.100946,0.79447 -1.138317,0.15509 -3.043313,0.26729 -4.233333,0.24933 z m 1.14362,-4.56618 c 2.849151,-0.0769 4.381186,-0.2511 5.953129,-0.67679 1.164167,-0.31527 3.208472,-1.10071 4.542904,-1.74544 1.334431,-0.64473 3.326902,-1.89678 4.427717,-2.78234 1.100812,-0.88556 2.7861,-2.58417 3.745082,-3.7747 1.045411,-1.29783 2.315612,-3.33002 3.17209,-5.07502 0.785667,-1.60073 1.730118,-4.041516 2.09878,-5.423964 0.36866,-1.382448 0.80857,-3.912526 0.977578,-5.622396 0.233323,-2.36058 0.233323,-3.857127 0,-6.217708 -0.169008,-1.70987 -0.605547,-4.217892 -0.97009,-5.573384 -0.364543,-1.35549 -1.026763,-3.338796 -1.471602,-4.407347 -0.444838,-1.068552 -1.506331,-2.995607 -2.358869,-4.282347 -0.85254,-1.286739 -2.30452,-3.093766 -3.226623,-4.015616 -0.922102,-0.921849 -2.636019,-2.316644 -3.808703,-3.099544 -1.172686,-0.782899 -3.196749,-1.833969 -4.497917,-2.33571 -1.30117,-0.501741 -3.318264,-1.116294 -4.48243,-1.365672 -1.369711,-0.293408 -3.283786,-0.451757 -5.423956,-0.448717 -2.06405,0.0029 -4.10297,0.171854 -5.42396,0.449366 -1.16417,0.244567 -3.18393,0.869007 -4.48836,1.387644 -1.30443,0.518637 -3.20812,1.432801 -4.23041,2.031475 -1.09589,0.641774 -2.90414,2.120064 -4.40601,3.60204 -1.75461,1.731353 -2.92938,3.171505 -3.77512,4.627889 -0.6753,1.162893 -1.59634,2.999577 -2.04676,4.081522 -0.45041,1.081947 -1.10814,3.107052 -1.46163,4.500237 -0.35347,1.393182 -0.73483,3.842748 -0.84746,5.443477 -0.11263,1.600729 -0.10801,4.180692 0.0102,5.733253 0.11827,1.552559 0.50442,3.936633 0.85812,5.29794 0.3537,1.361308 1.05608,3.454342 1.56084,4.651182 0.50476,1.19685 1.57894,3.16978 2.38704,4.38429 0.80811,1.21452 1.63686,2.34728 1.84167,2.51725 0.26362,0.21879 0.19437,-0.23441 -0.23713,-1.55177 -0.33523,-1.02344 -0.82544,-2.78107 -1.08936,-3.90585 -0.37754,-1.609 -0.4776,-3.116925 -0.46929,-7.072129 0.009,-4.162986 0.11048,-5.486111 0.59187,-7.697583 0.31972,-1.468774 0.88738,-3.730961 1.26146,-5.027084 0.37409,-1.296119 1.11129,-3.368614 1.63823,-4.605541 0.52694,-1.236927 1.44281,-3.072231 2.03527,-4.078454 0.59245,-1.006224 1.97016,-2.745738 3.06157,-3.865588 1.56927,-1.610164 2.45483,-2.266222 4.23333,-3.136207 1.23693,-0.605063 3.0824,-1.274497 4.10104,-1.487631 1.01865,-0.213133 3.07874,-0.389582 4.57798,-0.392109 1.52176,-0.0026 3.567105,0.179989 4.630209,0.413262 1.047374,0.229821 3.094939,0.991676 4.550148,1.693011 1.881597,0.906833 3.175489,1.760537 4.479538,2.955581 1.008537,0.924235 2.400769,2.548564 3.09385,3.60962 0.693081,1.061059 1.611609,2.846996 2.041173,3.96875 0.429562,1.121757 1.001845,2.992057 1.271739,4.156223 0.373438,1.610797 0.48529,3.096792 0.468008,6.217709 -0.01966,3.549261 -0.116594,4.452464 -0.720506,6.712955 -0.383788,1.436553 -1.171072,3.579678 -1.74952,4.762505 -0.578445,1.18282 -1.594633,2.83422 -2.25819,3.66977 -0.663559,0.83556 -1.890104,2.06093 -2.725655,2.72307 -0.835554,0.66213 -2.471687,1.67583 -3.635854,2.25267 -1.164167,0.57684 -3.069167,1.29488 -4.233333,1.59565 -1.487329,0.38425 -2.982007,0.55089 -5.027087,0.56044 -2.09976,0.01 -3.56356,-0.14352 -5.25534,-0.55051 -1.28971,-0.31027 -3.28363,-1.05249 -4.43094,-1.64939 -1.18774,-0.61792 -2.87152,-1.81251 -3.91014,-2.77412 -1.00327,-0.92888 -2.20959,-2.28955 -2.6807,-3.02372 -0.47112,-0.73417 -0.89867,-1.29277 -0.95012,-1.24132 -0.0515,0.0514 0.13849,0.9049 0.42208,1.89657 0.2836,0.99166 0.85952,2.53167 1.27985,3.42225 0.42032,0.89057 1.32344,2.35815 2.00692,3.26129 0.68349,0.90313 1.84804,2.12404 2.5879,2.71312 0.73985,0.58908 2.07313,1.42734 2.96284,1.86279 0.88971,0.43545 2.51062,1.03085 3.60203,1.32311 1.67123,0.44752 2.58978,0.51503 5.82083,0.42779 z m -0.92604,-10.04846 c 2.3196,-0.0673 3.312035,-0.22623 4.888822,-0.7828 1.088123,-0.38407 2.784666,-1.24921 3.770098,-1.92253 0.985433,-0.67331 2.28059,-1.83669 2.878127,-2.58527 0.597538,-0.74859 1.492679,-2.165891 1.989204,-3.149562 0.496522,-0.983673 1.136642,-2.767682 1.422487,-3.964464 0.285843,-1.196784 0.595181,-3.18993 0.687417,-4.429215 0.09819,-1.319345 0.03698,-3.130537 -0.14768,-4.369911 -0.173458,-1.164167 -0.499094,-2.77151 -0.723633,-3.571875 -0.224541,-0.800365 -0.834927,-2.348177 -1.356415,-3.439583 -0.704993,-1.475463 -1.460257,-2.496005 -2.944958,-3.97935 -1.36542,-1.36417 -2.545998,-2.261125 -3.733686,-2.836702 -0.955289,-0.462951 -2.562633,-1.035572 -3.571876,-1.272491 -1.323357,-0.310655 -2.609587,-0.397056 -4.613117,-0.309877 -1.92494,0.08376 -3.30628,0.302495 -4.49791,0.712244 -0.94589,0.325248 -2.5201,1.123036 -3.49825,1.772862 -0.97815,0.649825 -2.16877,1.637517 -2.64583,2.19487 -0.47706,0.557353 -1.31691,1.770838 -1.86634,2.696633 -0.54943,0.925799 -1.28732,2.592369 -1.63976,3.703492 -0.35244,1.111123 -0.78132,3.075655 -0.95307,4.365625 -0.17357,1.303629 -0.23958,3.291912 -0.14862,4.476335 0.09,1.172012 0.40559,3.077012 0.70131,4.233333 0.29572,1.156319 0.88697,2.848875 1.31389,3.76123 0.42692,0.912357 1.32386,2.370536 1.9932,3.240386 0.66934,0.86986 1.7613,1.99719 2.42659,2.50517 0.66528,0.50799 1.86404,1.2332 2.6639,1.6116 0.79986,0.37839 2.1836,0.85366 3.07499,1.05616 1.02192,0.23214 2.69597,0.33696 4.53111,0.28369 z m 68.6593783,14.60609 c -1.236928,-0.0209 -2.606146,-0.0827 -3.042709,-0.13714 -0.436562,-0.0545 -1.686719,-0.28737 -2.778125,-0.51755 -1.091406,-0.23017 -2.8386063,-0.81071 -3.8826683,-1.29008 -1.044061,-0.47937 -2.413968,-1.22638 -3.044237,-1.66002 -0.630269,-0.43363 -1.638935,-1.26686 -2.241479,-1.85161 -0.602543,-0.58475 -1.584121,-1.68129 -2.181283,-2.43675 -0.597162,-0.75547 -1.085749,-1.26006 -1.085749,-1.12132 0,0.13875 -0.313891,0.56616 -0.697537,0.9498 -0.452382,0.45238 -0.9846,0.69754 -1.514306,0.69754 -0.653764,0 -1.117338,-0.31587 -2.322835,-1.58272 -0.828339,-0.8705 -2.109055,-2.48426 -2.846036,-3.58614 -0.736984,-1.10188 -1.766779,-2.90284 -2.288434,-4.00212 -0.521658,-1.09929 -1.293659,-3.05503 -1.715558,-4.3461 -0.4219,-1.291065 -0.976509,-3.391558 -1.232459,-4.667763 -0.344418,-1.71731 -0.462581,-3.558135 -0.454652,-7.082869 0.0087,-3.872764 0.118907,-5.266111 0.589831,-7.458183 0.318513,-1.482625 0.949232,-3.744812 1.401601,-5.027084 0.452366,-1.282269 1.241986,-3.164837 1.754708,-4.183483 0.512723,-1.018646 1.507554,-2.704711 2.210737,-3.746811 0.703183,-1.0421 1.940817,-2.610094 2.750299,-3.48443 0.809482,-0.874337 2.331037,-2.245174 3.381235,-3.046305 1.050194,-0.801131 2.802416,-1.931737 3.893822,-2.512458 1.091407,-0.580721 3.018584,-1.417089 4.282615,-1.858595 1.264031,-0.441506 3.2285623,-0.977633 4.3656253,-1.191392 1.137063,-0.213759 3.138948,-0.469056 4.448635,-0.567327 1.346367,-0.101024 3.54385601,-0.04891 5.05638601,0.1199 1.47132699,0.164217 3.78039899,0.594363 5.13127399,0.955881 1.350875,0.361518 3.399679,1.066193 4.5528967,1.565946 1.153218,0.499753 3.073614,1.558619 4.267549,2.353035 1.193933,0.794416 3.20901,2.521382 4.477946,3.837702 1.268937,1.316321 2.82855,3.20197 3.465809,4.190332 0.63726,0.988362 1.542018,2.559488 2.010574,3.491391 0.468556,0.931904 1.251694,2.914768 1.740308,4.406367 0.488611,1.491599 1.099497,3.765227 1.357524,5.052507 0.348575,1.739019 0.466386,3.564422 0.458425,7.103007 -0.0087,3.872764 -0.118906,5.266111 -0.58983,7.458183 -0.318514,1.482625 -0.947341,3.744812 -1.397395,5.027089 -0.450053,1.28226 -1.309224,3.27956 -1.909267,4.43841 -0.600044,1.15886 -1.759339,3.00433 -2.576217,4.10104 -0.816874,1.09672 -2.36815,2.82747 -3.447277,3.84612 -1.07913,1.01864 -2.616705,2.28352 -3.416837,2.81083 -0.800132,0.52731 -2.288223,1.37644 -3.306868,1.88695 -1.018646,0.51052 -2.8636197,1.24724 -4.0999407,1.63717 -1.236324,0.38994 -3.37945,0.87956 -4.762501,1.08805 -1.383054,0.2085 -3.52667299,0.36195 -4.7636,0.341 z m 1.058333,-4.5637 c 3.162498,-0.0847 4.244742,-0.22401 6.160579,-0.79308 1.278269,-0.37969 3.105442,-1.04461 4.060386,-1.4776 0.9549427,-0.43299 2.4763067,-1.31534 3.3808087,-1.96078 0.9045,-0.64544 2.589671,-2.17686 3.744823,-3.40316 1.155152,-1.2263 2.682748,-3.20175 3.394652,-4.3899 0.711906,-1.18814 1.686472,-3.20414 2.165702,-4.48 0.479229,-1.275849 1.127408,-3.566842 1.440394,-5.091093 0.417803,-2.034694 0.572019,-3.755983 0.58016,-6.475529 0.0072,-2.410217 -0.14451,-4.524346 -0.434343,-6.052079 -0.244991,-1.291352 -0.750559,-3.315415 -1.12349,-4.497917 -0.37293,-1.182502 -1.095793,-2.983441 -1.606362,-4.002087 -0.510569,-1.018646 -1.522616,-2.714155 -2.248992,-3.767799 -0.726377,-1.053643 -2.125877,-2.675293 -3.11,-3.603666 -0.984126,-0.928373 -2.348386,-2.072601 -3.031694,-2.542728 -0.683308,-0.470128 -2.21551,-1.307433 -3.4048967,-1.860678 -1.189384,-0.553245 -3.055487,-1.252247 -4.146894,-1.553337 -1.091406,-0.30109 -3.099141,-0.672554 -4.46163099,-0.825477 -1.73557201,-0.194796 -3.30075701,-0.194274 -5.22779101,0.0017 -1.512793,0.153881 -3.79131,0.57783 -5.063369,0.942109 -1.2720583,0.364278 -3.3847143,1.190192 -4.6947873,1.835363 -1.310074,0.645172 -3.338643,1.938486 -4.507929,2.874032 -1.169289,0.935546 -2.860712,2.627653 -3.758716,3.760237 -0.898006,1.132585 -2.223365,3.257772 -2.945238,4.722638 -0.721876,1.464866 -1.55643,3.467351 -1.854566,4.449966 -0.298137,0.982615 -0.746323,2.828084 -0.995973,4.101042 -0.301541,1.537547 -0.453909,3.602294 -0.453909,6.150928 0,2.515531 0.152794,4.614722 0.44377,6.096822 0.244073,1.243201 0.798872,3.310898 1.232887,4.594884 0.434014,1.283979 1.278019,3.243379 1.875568,4.354219 0.597545,1.11084 1.563642,2.65389 2.146879,3.42901 0.583237,0.77512 1.104027,1.36571 1.157311,1.31242 0.05329,-0.0533 -0.19645,-1.04466 -0.554968,-2.20306 -0.358521,-1.15839 -0.845609,-3.1182 -1.082419,-4.35513 -0.254836,-1.33106 -0.434718,-3.652797 -0.44074,-5.68854 -0.0056,-1.891771 0.138782,-4.392084 0.320836,-5.55625 0.182057,-1.164167 0.679876,-3.512463 1.106266,-5.218436 0.426392,-1.705972 1.248436,-4.325347 1.82677,-5.820833 0.578332,-1.495486 1.590371,-3.638468 2.248972,-4.762185 0.658603,-1.123715 1.940639,-2.840356 2.848972,-3.814757 0.908333,-0.9744 2.356554,-2.22916 3.218268,-2.788356 0.861713,-0.559196 2.528588,-1.327944 3.7041663,-1.708328 1.70129,-0.55049 2.841575,-0.718536 5.588458,-0.823579 2.94143101,-0.112484 3.78145701,-0.04855 5.688542,0.432937 1.230624,0.310699 3.070934,0.963661 4.08958,1.451025 1.018646,0.487365 2.58904,1.432943 3.489764,2.101286 0.9007257,0.668343 2.2731807,1.985615 3.0499047,2.927272 0.776722,0.941654 1.852848,2.603225 2.391392,3.692379 0.538546,1.089155 1.266195,2.973385 1.617001,4.187177 0.350805,1.213795 0.78282,3.328009 0.96003,4.698257 0.201419,1.557422 0.251711,3.441924 0.134165,5.027083 -0.103423,1.394648 -0.473396,3.666818 -0.822167,5.049266 -0.348768,1.382448 -1.093253,3.466042 -1.654405,4.630208 -0.561155,1.164164 -1.580113,2.856744 -2.264352,3.761284 -0.684239,0.90454 -1.921645,2.18972 -2.749785,2.85596 -0.8281427,0.66623 -2.4646417,1.68123 -3.6366637,2.25554 -1.172022,0.57432 -3.077022,1.29134 -4.233333,1.59339 -1.56398899,0.40854 -2.91546299,0.54918 -5.277385,0.54918 -2.341792,0 -3.715663,-0.14129 -5.235236,-0.5384 -1.133129,-0.29612 -2.9785973,-1.01636 -4.1010423,-1.60054 -1.122442,-0.58417 -2.581267,-1.51066 -3.241828,-2.05886 -0.660564,-0.54819 -1.623431,-1.47297 -2.139707,-2.05505 -0.516273,-0.58209 -1.255733,-1.53246 -1.643245,-2.11194 -0.387511,-0.57949 -0.704567,-0.91945 -0.704567,-0.75548 0,0.16397 0.25001,1.11435 0.555578,2.11194 0.30557,0.9976 1.046853,2.76631 1.647298,3.93048 0.754412,1.46268 1.669701,2.69664 2.962407,3.99381 1.337501,1.34211 2.449595,2.16325 3.901776,2.88096 1.1170983,0.5521 2.8975213,1.22447 3.9564953,1.49416 1.562648,0.39797 2.648214,0.47099 5.761863,0.38762 z m -1.719792,-9.97313 c 1.309688,0.01 3.14157801,-0.1611 4.070869,-0.38015 0.929288,-0.21906 2.622187,-0.88347 3.761994,-1.47646 1.488903,-0.77461 2.554584,-1.58933 3.785068,-2.89371 1.101522,-1.16767 2.0417737,-2.504122 2.6348877,-3.745161 0.507209,-1.061289 1.136311,-2.703521 1.398008,-3.649406 0.367623,-1.328753 0.477282,-2.712432 0.482283,-6.085417 0.005,-3.348968 -0.101669,-4.766124 -0.457899,-6.085416 C 12.651088,81.328154 11.954062,79.558563 11.357545,78.341614 10.577273,76.749783 9.7702253,75.617179 8.4811123,74.304845 7.0783333,72.876802 6.2082013,72.25737 4.4738093,71.452125 3.2553163,70.886402 1.6274273,70.291931 0.85628031,70.13108 0.08513431,69.970229 -1.5645567,69.838623 -2.8096957,69.838623 c -1.24514,0 -2.995452,0.188242 -3.889582,0.418315 -0.894127,0.230073 -2.340065,0.758859 -3.21319,1.175079 -0.8731253,0.416221 -2.2535543,1.352059 -3.0676213,2.079639 -0.814068,0.727583 -1.969262,2.074032 -2.567101,2.99211 -0.59784,0.918077 -1.382091,2.453812 -1.742784,3.412746 -0.360691,0.958932 -0.842603,2.728257 -1.070917,3.93183 -0.228315,1.203577 -0.414219,3.157435 -0.413121,4.341905 0.0011,1.184471 0.12654,2.921175 0.278755,3.85934 0.152214,0.938165 0.589759,2.652808 0.97232,3.810317 0.382561,1.15751 1.247708,2.949763 1.922547,3.982786 0.674841,1.03302 1.856769,2.44391 2.626508,3.1353 0.769739,0.69139 2.147123,1.61387 3.0608563,2.04995 0.913731,0.43609 2.359218,0.96181 3.212195,1.16829 0.852974,0.20647 2.622426,0.38355 3.932113,0.39353 z m 46.6989587,13.25512 h -6.10947 l -0.64943,-0.64944 -0.649433,-0.64943 V 88.227165 57.90832 l 0.649433,-0.649432 c 0.357187,-0.357187 0.922734,-0.645213 1.256771,-0.640056 0.334036,0.0052 0.882438,0.162032 1.21867,0.348613 0.336236,0.18658 4.602076,6.224783 9.479646,13.418228 4.87757,7.193447 13.762471,20.312039 19.744227,29.152429 L 79.74657,115.61154 h 1.671002 1.671003 V 88.227165 60.84279 h -3.175 -3.175 v 17.680963 17.680962 l -0.612365,0.575288 c -0.354629,0.333156 -0.954773,0.575287 -1.425898,0.575287 -0.447442,0 -1.063776,-0.20836 -1.369629,-0.463021 C 73.024827,96.637607 67.443468,88.45206 60.927662,78.702165 L 49.080739,60.975081 47.63672,60.79831 c -1.023998,-0.125355 -1.58066,-0.345518 -1.913789,-0.756916 -0.258376,-0.319079 -0.469773,-0.970482 -0.469773,-1.447563 0,-0.47708 0.228145,-1.148499 0.506989,-1.492042 0.458875,-0.56535 0.709726,-0.623421 2.643413,-0.611945 1.698987,0.01008 2.285899,0.120573 2.866448,0.539633 0.401513,0.289824 5.313931,7.368338 10.916483,15.73003 l 10.186459,15.203074 0.132291,-15.17089 0.132292,-15.170889 0.624623,-0.505673 c 0.574368,-0.464986 1.112872,-0.505673 6.692757,-0.505673 h 6.068132 l 0.64943,0.649432 0.649433,0.649432 v 30.318845 30.318845 l -0.649433,0.64943 c -0.632216,0.63222 -0.755406,0.64944 -4.647602,0.64944 -2.198992,0 -4.217429,-0.11734 -4.485412,-0.26077 -0.267984,-0.14342 -6.471492,-9.10287 -13.785573,-19.909898 -7.314081,-10.80702 -15.428195,-22.774521 -18.031365,-26.594443 -2.603169,-3.819922 -4.785741,-6.945313 -4.850159,-6.945313 -0.06442,0 -0.117123,11.136122 -0.117123,24.74694 v 24.746944 l 3.108854,-0.0745 3.108854,-0.0746 0.06851,-13.99865 c 0.05095,-10.412072 0.149852,-14.096668 0.386001,-14.381211 0.174622,-0.210407 0.60743,-0.492792 0.961792,-0.62752 0.417306,-0.158658 0.957842,-0.141484 1.534261,0.04875 0.489479,0.161544 1.00811,0.514477 1.152514,0.784296 0.165039,0.308383 0.262552,6.200942 0.262552,15.865845 V 118.546 l -0.649433,0.64943 -0.649431,0.64944 z m 83.211459,0 c -18.45273,0 -18.58663,-0.004 -19.28534,-0.55344 l -0.70358,-0.55343 0.0726,-4.27521 0.0726,-4.27521 0.94917,-0.46426 c 0.7751,-0.37911 1.10363,-0.4104 1.79152,-0.17061 0.46329,0.16151 0.9589,0.51142 1.10136,0.77759 0.14245,0.26617 0.259,1.56334 0.259,2.88259 v 2.39864 h 15.7427 15.7427 v -3.30248 -3.30248 l -20.39635,-0.071 -20.39636,-0.0709 -0.50572,-0.62462 c -0.48988,-0.60505 -0.50572,-1.40228 -0.50572,-25.436844 0,-24.034646 0.0159,-24.831784 0.50572,-25.436834 l 0.50572,-0.624624 21.38855,-0.0744 c 11.76368,-0.04092 21.65944,-0.0081 21.99057,0.07288 0.33113,0.081 0.83714,0.382373 1.12448,0.669713 0.49096,0.490957 0.52245,0.902283 0.52245,6.826316 0,6.240279 -0.006,6.309662 -0.61003,6.87696 -0.60902,0.572139 -0.63473,0.573191 -15.67655,0.641433 l -15.06654,0.06835 -0.0724,4.564062 -0.0724,4.564063 h 14.31113 c 10.37279,0 14.47018,0.08471 14.88904,0.3078 0.31788,0.169291 0.72298,0.496713 0.90025,0.727605 0.23082,0.300656 0.3247,2.1151 0.33073,6.392955 l 0.008,5.973148 -0.68263,0.641435 -0.68262,0.641432 -14.53091,0.0727 -14.53092,0.0727 v 2.465983 c 0,2.017277 -0.0842,2.539967 -0.46302,2.872567 -0.25466,0.22363 -0.73969,0.49101 -1.07783,0.5942 -0.33817,0.10318 -0.94779,0.0497 -1.35475,-0.11888 -0.40695,-0.16857 -0.87442,-0.6017 -1.03883,-0.96251 -0.17516,-0.3843 -0.29895,-2.138778 -0.29895,-4.235807 v -3.579778 l 0.7734,-0.773396 0.7734,-0.773398 h 14.44879 14.44881 l -0.0748,-2.976562 -0.0748,-2.976563 -14.60893,-0.132292 c -13.57091,-0.122891 -14.6425,-0.165872 -15.08125,-0.604922 -0.43167,-0.431967 -0.47231,-1.13389 -0.47231,-8.158956 v -7.686329 l 0.74237,-0.638438 0.74234,-0.638438 h 14.93422 14.93418 v -3.175 -3.175 H 124.099 105.31358 v 21.695833 21.695836 h 19.80427 c 13.77701,0 20.05954,0.089 20.64308,0.29242 0.46135,0.16082 0.95535,0.51018 1.09781,0.77635 0.14829,0.2771 0.259,3.19725 0.259,6.83214 v 6.34819 l -0.69715,0.54837 c -0.69025,0.54295 -0.88086,0.54837 -19.27889,0.54837 z m 38.26274,-0.008 c -4.28604,-0.006 -6.10267,-0.0998 -6.40339,-0.33072 -0.23088,-0.17728 -0.5583,-0.58238 -0.72761,-0.90024 -0.21886,-0.41095 -0.30779,-3.55981 -0.30779,-10.89931 V 97.384799 l 0.63828,-0.74236 0.63828,-0.742358 10.40808,-0.08193 c 5.72444,-0.04506 10.79756,-0.0094 11.27363,0.07919 0.47604,0.08862 1.29566,0.538771 1.82136,1.00034 0.52571,0.461565 1.5054,1.562391 2.17715,2.446276 0.67176,0.883883 3.95979,4.904073 7.30676,8.933753 l 6.08542,7.32668 3.66006,0.004 c 2.09648,0.002 3.62241,-0.0996 3.57188,-0.23792 -0.0485,-0.13283 -3.18381,-3.90212 -6.96736,-8.3762 -3.78354,-4.47409 -7.08673,-8.443302 -7.34044,-8.820484 -0.25371,-0.37718 -0.46206,-1.051981 -0.46302,-1.499558 0,-0.513358 0.21802,-1.007848 0.59357,-1.339487 0.32742,-0.289142 1.30969,-0.739159 2.18281,-1.000036 0.87313,-0.260876 2.41718,-0.906912 3.43122,-1.435629 1.01405,-0.528719 2.5077,-1.617503 3.31923,-2.419522 0.81153,-0.802018 1.79279,-2.007076 2.18059,-2.677906 0.3878,-0.67083 1.02193,-2.159111 1.40914,-3.307291 0.51668,-1.532044 0.74002,-2.830153 0.83923,-4.877856 0.0982,-2.026611 0.0127,-3.402436 -0.31249,-5.027083 -0.25752,-1.286648 -0.89755,-3.171964 -1.5067,-4.438233 -0.77655,-1.614322 -1.53083,-2.677728 -2.82834,-3.987504 -0.97317,-0.982357 -2.42422,-2.155857 -3.22459,-2.607779 -0.80036,-0.451922 -2.34817,-1.119574 -3.43958,-1.483669 -1.09141,-0.364096 -3.14055,-0.789574 -4.55364,-0.945507 -1.44875,-0.159866 -7.8241,-0.283513 -14.61823,-0.283513 h -12.04896 v 12.444478 12.444482 l 13.69218,-0.07521 c 13.51262,-0.07422 13.7064,-0.08281 14.77558,-0.654934 0.59587,-0.318846 1.44587,-0.992592 1.88894,-1.497208 0.44307,-0.504616 1.01021,-1.533612 1.26032,-2.286656 0.30988,-0.932958 0.4227,-1.93707 0.35406,-3.151656 -0.0695,-1.230019 -0.30731,-2.186723 -0.76729,-3.086743 -0.44011,-0.861115 -1.08836,-1.588661 -1.90796,-2.14131 -0.68276,-0.460375 -1.84449,-0.966391 -2.58162,-1.124478 -0.78351,-0.16803 -4.41233,-0.287431 -8.73556,-0.287431 h -7.39532 v 4.721492 c 0,4.167675 -0.0543,4.76848 -0.46302,5.122061 -0.25466,0.220313 -0.73904,0.467868 -1.07638,0.550122 -0.33734,0.08225 -0.97091,0.0249 -1.40795,-0.127447 -0.44162,-0.153954 -0.90374,-0.564058 -1.04029,-0.923214 -0.13512,-0.355417 -0.24569,-3.266995 -0.24569,-6.470173 v -5.823963 l 0.79388,-0.793886 0.79388,-0.793886 9.45872,0.102608 c 8.64293,0.09376 9.58644,0.148352 10.93947,0.633011 0.81441,0.291722 2.04694,0.862205 2.73894,1.26774 0.69199,0.405535 1.73405,1.21322 2.31568,1.794855 0.58164,0.581635 1.3987,1.789902 1.81568,2.685037 0.4486,0.963006 0.84487,2.383718 0.97057,3.479601 0.11684,1.018646 0.1257,2.620071 0.0198,3.558723 -0.11681,1.034275 -0.50564,2.342234 -0.98697,3.319955 -0.43683,0.887325 -1.36417,2.192509 -2.06076,2.900412 -0.76362,0.776023 -2.00192,1.634625 -3.11859,2.162323 -1.03172,0.487556 -2.682,1.001851 -3.72573,1.161095 -1.21537,0.185436 -6.68462,0.2579 -15.56737,0.206264 l -13.69375,-0.07961 -0.63833,-0.742357 -0.63836,-0.74236 V 73.514897 c 0,-12.83727 0.0586,-15.192926 0.39396,-15.841496 0.21669,-0.419023 0.60365,-0.821812 0.8599,-0.895087 0.25627,-0.07327 4.63311,-0.208608 9.72634,-0.300742 5.0959,-0.09218 12.05659,-0.0477 15.47813,0.09892 4.76819,0.204324 6.71115,0.394408 8.33437,0.815366 1.16417,0.301911 2.97286,0.954555 4.01932,1.450319 1.04645,0.495766 2.59553,1.371935 3.44244,1.947043 0.84687,0.575108 2.3124,1.870359 3.25673,2.878337 0.94429,1.007978 2.1663,2.600463 2.71555,3.538856 0.54922,0.938392 1.36797,2.837262 1.81943,4.21971 0.68755,2.105438 0.84259,3.062235 0.95496,5.892969 0.0828,2.086184 0.008,4.161835 -0.19428,5.423959 -0.18063,1.124492 -0.67392,2.99703 -1.0962,4.161197 -0.4223,1.164167 -1.31704,2.923167 -1.98834,3.908891 -0.6713,0.985721 -1.98811,2.495563 -2.92624,3.355202 -0.93816,0.859639 -2.69412,2.077202 -3.90213,2.705695 l -2.19641,1.142712 7.26726,8.598962 c 3.99701,4.72943 7.43445,8.98209 7.63873,9.45036 0.20431,0.46827 0.37148,1.21782 0.37148,1.66567 0,0.51582 -0.2425,1.05676 -0.6616,1.47585 l -0.66156,0.66158 -7.16177,-0.0783 -7.16179,-0.0783 -1.10633,-1.19819 c -0.60849,-0.65901 -4.19076,-4.94526 -7.96065,-9.525 -3.76989,-4.57975 -7.03927,-8.47724 -7.26533,-8.66109 -0.31639,-0.25734 -2.39244,-0.31824 -9.02065,-0.26459 l -8.60983,0.0697 v 7.67293 7.67291 l 3.10885,0.0746 3.10886,0.0745 v -4.88844 c 0,-4.76251 0.0161,-4.90722 0.62759,-5.61804 0.48707,-0.56626 0.84627,-0.72341 1.6044,-0.70192 0.53724,0.0152 1.20732,0.2363 1.48908,0.49128 0.48088,0.43519 0.51226,0.87316 0.51226,7.15025 v 6.68667 l -0.69715,0.54837 c -0.6594,0.51868 -1.02105,0.54791 -6.68073,0.53995 z"
       id="path94" />
  </g>
</svg>
